<?xml version="1.0" encoding="UTF-8"?>
<svg version="1.1" xmlns="http://www.w3.org/2000/svg" width="1920" height="1920">
<path d="M0 0 C633.6 0 1267.2 0 1920 0 C1920 633.6 1920 1267.2 1920 1920 C1286.4 1920 652.8 1920 0 1920 C0 1286.4 0 652.8 0 0 Z " fill="#FEFEFE" transform="translate(0,0)"/>
<path d="M0 0 C0.94230469 0.75023437 1.88460937 1.50046875 2.85546875 2.2734375 C4.19158203 3.33691406 4.19158203 3.33691406 5.5546875 4.421875 C27.48294854 22.15655619 47.97117476 41.29919939 67.91796875 61.2109375 C68.94387619 62.23296265 68.94387619 62.23296265 69.99050903 63.27563477 C83.24147686 76.48709842 83.24147686 76.48709842 88.42456055 82.59741211 C90.92212573 85.52281476 93.59152044 88.28861997 96.23046875 91.0859375 C100.95419984 96.12909568 105.42381166 101.30034726 109.74609375 106.6953125 C111.87532021 109.2977004 114.08996232 111.78919252 116.35546875 114.2734375 C121.06177155 119.44546818 125.45961062 124.83745405 129.85546875 130.2734375 C131.41751101 132.169648 132.98000623 134.06548546 134.54296875 135.9609375 C138.10510346 140.31049147 141.5388473 144.73421833 144.85546875 149.2734375 C144.52546875 149.9334375 144.19546875 150.5934375 143.85546875 151.2734375 C143.18717041 150.99669189 142.51887207 150.71994629 141.83032227 150.43481445 C129.33947795 145.28610493 116.98266675 140.42471685 103.94628906 136.86962891 C100.86554143 135.99116257 97.82679909 134.99206276 94.78100586 134.00024414 C85.95533676 131.12823727 77.13441546 128.78718019 68.07177734 126.7878418 C65.48027499 126.18635519 62.91094102 125.51231471 60.3359375 124.84375 C52.9883105 122.9983557 45.56324314 121.64304478 38.10546875 120.3359375 C37.38200256 120.20781677 36.65853638 120.07969604 35.91314697 119.94769287 C19.96491176 117.13729865 3.94328355 115.09809904 -12.14453125 113.2734375 C-12.14453125 113.9334375 -12.14453125 114.5934375 -12.14453125 115.2734375 C-10.87609375 115.23089844 -9.60765625 115.18835938 -8.30078125 115.14453125 C-2.89038578 115.15191674 2.09749556 116.1329235 7.35546875 117.3359375 C8.34232666 117.55709229 9.32918457 117.77824707 10.34594727 118.00610352 C26.31957889 121.66973443 42.15679122 125.90428204 57.41015625 131.93359375 C60.67726084 133.20413443 63.95700298 134.32407258 67.29296875 135.3984375 C71.53203088 136.78273828 75.58225616 138.36593544 79.625 140.24609375 C81.38936044 141.05875013 83.17052927 141.83490541 84.95703125 142.59765625 C99.04106046 148.61175559 112.88459785 155.18605757 126.59909058 161.99597168 C127.87245821 162.62808755 129.14677899 163.25828784 130.42214966 163.88635254 C139.22396938 168.22835195 147.54964513 173.0504144 155.85546875 178.2734375 C157.42342557 179.21316145 158.99465148 180.14747064 160.5703125 181.07421875 C169.13822577 186.15234212 177.14211512 191.5327636 184.859375 197.83203125 C187.87089098 200.28600451 190.95182299 202.59877195 194.109375 204.859375 C196.54012669 206.82790321 198.66275929 209.04286831 200.85546875 211.2734375 C201.95563021 212.36469553 203.05727896 213.45445554 204.16015625 214.54296875 C216.52673979 226.79616044 216.52673979 226.79616044 221.85546875 233.2734375 C222.76619141 234.35044922 222.76619141 234.35044922 223.6953125 235.44921875 C229.66723118 242.67464908 234.78402143 250.40540538 239.85546875 258.2734375 C240.28150391 258.93182617 240.70753906 259.59021484 241.14648438 260.26855469 C248.59049509 271.81863202 255.5507369 283.56539855 260.85546875 296.2734375 C261.24347656 297.17964844 261.63148438 298.08585937 262.03125 299.01953125 C265.25792755 306.65932792 268.26178458 314.37187296 271.08935547 322.16699219 C271.59044433 323.54474703 272.09706396 324.92050609 272.60986328 326.29394531 C276.33918035 336.3375914 278.96082612 346.4908599 281.23046875 356.9609375 C281.4934375 358.16717773 281.75640625 359.37341797 282.02734375 360.61621094 C283.21382732 366.30144473 283.9843961 371.44198945 283.85546875 377.2734375 C283.04319824 377.31307617 282.23092773 377.35271484 281.39404297 377.39355469 C244.27586013 379.27677574 208.51329506 384.62724978 172.85546875 395.2734375 C172.05641113 395.5091748 171.25735352 395.74491211 170.43408203 395.98779297 C165.33454226 397.49249495 160.24416853 399.0251416 155.15869141 400.57666016 C153.12807596 401.19096761 151.09177482 401.78641323 149.0546875 402.37890625 C136.23672576 406.19262849 123.81160293 411.11894646 111.34228516 415.9296875 C109.05987173 416.80928444 106.77574868 417.68446107 104.48974609 418.5546875 C93.05680554 422.91333647 81.84315428 427.65443268 70.73046875 432.7734375 C69.72371094 433.23363281 68.71695313 433.69382812 67.6796875 434.16796875 C62.1624132 436.70177519 56.70570594 439.32552326 51.28662109 442.0625 C48.86449931 443.26893945 46.42512937 444.42695932 43.97265625 445.5703125 C18.51991086 457.44972483 -6.01220718 470.8886227 -30.04296875 485.40966797 C-34.00318465 487.78941357 -37.9905552 490.12105734 -41.97924805 492.45263672 C-51.52350196 498.03939485 -60.87453942 503.85575234 -70.10888672 509.93945312 C-72.16614259 511.28759969 -74.23333074 512.61894711 -76.3046875 513.9453125 C-86.29191548 520.34446763 -96.10715676 526.97152454 -105.87060547 533.70654297 C-108.01238056 535.1823764 -110.15767328 536.652896 -112.3046875 538.12109375 C-112.9649292 538.57323242 -113.6251709 539.02537109 -114.30541992 539.49121094 C-115.60304368 540.37962755 -116.90137127 541.26701712 -118.20043945 542.15332031 C-121.76944584 544.59955896 -125.28968989 547.09902346 -128.77734375 549.66015625 C-129.54804199 550.22081787 -130.31874023 550.78147949 -131.11279297 551.35913086 C-132.6040739 552.44687557 -134.08787612 553.54496836 -135.56298828 554.65454102 C-136.57014893 555.3862854 -136.57014893 555.3862854 -137.59765625 556.1328125 C-138.48179199 556.78975098 -138.48179199 556.78975098 -139.38378906 557.45996094 C-141.14453125 558.2734375 -141.14453125 558.2734375 -143.19750977 558.06958008 C-146.52766528 556.70787009 -148.56469278 553.90170116 -150.83203125 551.2109375 C-151.62105835 550.27797852 -151.62105835 550.27797852 -152.42602539 549.32617188 C-158.01812238 542.50467896 -162.30426071 535.19273092 -166.14453125 527.2734375 C-166.69367188 526.16742187 -167.2428125 525.06140625 -167.80859375 523.921875 C-169.30591285 520.41697721 -170.33683764 516.98294137 -171.14453125 513.2734375 C-171.34256348 512.44505371 -171.5405957 511.61666992 -171.74462891 510.76318359 C-173.1428223 504.13747835 -173.99893736 497.60635272 -171.14453125 491.2734375 C-165.26596914 485.01190276 -157.11450302 481.50574397 -149.46435547 477.87158203 C-145.7207902 476.06945096 -142.14630688 474.05787916 -138.54638672 471.98876953 C-127.08284698 465.46316032 -115.1796486 459.68860758 -103.39453125 453.7734375 C-102.51723358 453.33206451 -101.63993591 452.89069153 -100.73605347 452.4359436 C-83.83704081 443.94737367 -83.83704081 443.94737367 -76.10595703 441.02246094 C-73.14558539 439.89196303 -70.31247434 438.51932574 -67.45703125 437.1484375 C-60.77969129 433.98800727 -54.03773758 430.98381796 -47.26953125 428.0234375 C-46.30700439 427.5991748 -45.34447754 427.17491211 -44.3527832 426.73779297 C-39.4536222 424.60507257 -34.58107428 422.70949578 -29.49316406 421.08447266 C-26.79154597 420.15154383 -24.18793763 419.05799414 -21.55859375 417.9375 C-14.97639859 415.15232392 -8.28260128 412.73276013 -1.54394531 410.36132812 C0.4865954 409.64628002 2.51487222 408.92507266 4.54296875 408.203125 C10.85961007 405.96397181 17.18132471 403.8073895 23.61938477 401.93823242 C25.84008736 401.27801044 28.02691886 400.55083101 30.21875 399.80078125 C35.76582153 397.92984666 41.4012117 396.39260888 47.04296875 394.8359375 C49.27742088 394.21512128 51.51179655 393.59402981 53.74609375 392.97265625 C54.80763672 392.67794434 55.86917969 392.38323242 56.96289062 392.07958984 C60.41105207 391.11859819 63.85281268 390.13768426 67.29296875 389.1484375 C68.36160156 388.84421875 69.43023438 388.54 70.53125 388.2265625 C72.92816736 387.53931475 75.32003934 386.84026922 77.7109375 386.1328125 C87.09469313 383.39711632 96.5518308 381.15114406 106.10546875 379.0859375 C107.25289551 378.83602051 108.40032227 378.58610352 109.58251953 378.32861328 C116.72019304 376.81654141 123.84457756 375.64337416 131.08105469 374.7097168 C133.80495517 374.4248787 133.80495517 374.4248787 135.85546875 373.2734375 C137.8109151 372.98247673 139.77351493 372.73889836 141.73828125 372.51953125 C143.48818359 372.32133789 143.48818359 372.32133789 145.2734375 372.11914062 C146.49675781 371.98443359 147.72007812 371.84972656 148.98046875 371.7109375 C150.21152344 371.57236328 151.44257812 371.43378906 152.7109375 371.29101562 C155.75875143 370.94843189 158.80691806 370.6093912 161.85546875 370.2734375 C136.51987066 369.08737569 110.93093121 373.12595668 85.85546875 376.3984375 C84.6348877 376.55666992 83.41430664 376.71490234 82.15673828 376.87792969 C76.53567165 377.64214482 71.27048395 378.60363881 65.85546875 380.2734375 C63.50666937 380.73889259 61.15186609 381.17470727 58.79296875 381.5859375 C42.23521796 384.60427749 26.05326913 388.64111074 9.9375 393.48046875 C6.01330036 394.65428911 2.08203514 395.75718259 -1.8828125 396.78515625 C-15.26661407 400.28598323 -28.17771679 404.66464732 -41.14453125 409.4609375 C-41.97285461 409.76693878 -42.80117798 410.07294006 -43.65460205 410.38821411 C-51.92269161 413.4530899 -60.1575014 416.52293901 -68.14453125 420.2734375 C-72.65139834 422.31255381 -77.15773641 424.29457917 -81.76953125 426.0859375 C-87.89872775 428.518901 -93.84382813 431.33075462 -99.796875 434.16064453 C-102.46119426 435.42353629 -105.13110361 436.67425847 -107.80078125 437.92578125 C-121.35167038 444.28266229 -121.35167038 444.28266229 -134.38671875 451.61572266 C-136.97912031 453.17400936 -139.60043536 454.62926724 -142.265625 456.05859375 C-148.0744983 459.21007107 -153.77364782 462.52700561 -159.45703125 465.8984375 C-160.40642578 466.45789063 -161.35582031 467.01734375 -162.33398438 467.59375 C-166.18095457 469.87025434 -170.00535973 472.13531427 -173.6875 474.671875 C-176.14453125 476.2734375 -176.14453125 476.2734375 -178.14453125 476.2734375 C-178.00015625 475.04882812 -177.85578125 473.82421875 -177.70703125 472.5625 C-176.09787574 457.09800011 -175.91988479 441.68410754 -175.89453125 426.1484375 C-175.88953613 425.09505188 -175.88454102 424.04166626 -175.87939453 422.95635986 C-175.810245 405.13894616 -176.18412807 387.04883685 -179.5390625 369.4921875 C-180.03262268 366.86835789 -180.45205956 364.25704507 -180.84375 361.6171875 C-186.68341538 324.06107866 -202.24848302 288.08006173 -232.67578125 264.2265625 C-242.19810268 256.69308036 -242.19810268 256.69308036 -245.14453125 252.2734375 C-245.14453125 250.9534375 -245.14453125 249.6334375 -245.14453125 248.2734375 C-235.45956174 247.49518102 -227.20607944 250.35675582 -218.14453125 253.3359375 C-216.56562561 253.84387116 -214.98652288 254.35119253 -213.40722656 254.85791016 C-204.10597618 257.86435302 -194.92980412 261.08681875 -185.87890625 264.78515625 C-182.023055 266.35475015 -178.10305152 267.676211 -174.14453125 268.9609375 C-170.09878753 270.27526906 -166.13203504 271.63420963 -162.20703125 273.2734375 C-156.75743444 275.51422566 -151.15334454 277.20911682 -145.5234375 278.92578125 C-142.58229819 279.82297728 -139.65521749 280.75365962 -136.734375 281.71484375 C-111.43596224 290.04930163 -111.43596224 290.04930163 -85.14453125 293.2734375 C-85.69391357 293.01651123 -86.2432959 292.75958496 -86.80932617 292.49487305 C-89.31819926 291.31965711 -91.82512215 290.14033675 -94.33203125 288.9609375 C-95.62850586 288.35475586 -95.62850586 288.35475586 -96.95117188 287.73632812 C-97.79228516 287.33994141 -98.63339844 286.94355469 -99.5 286.53515625 C-100.26981201 286.17381592 -101.03962402 285.81247559 -101.83276367 285.44018555 C-104.14453125 284.2734375 -104.14453125 284.2734375 -106.56494141 282.77441406 C-109.33467282 281.16280051 -112.05167682 280.08901329 -115.0625 278.99609375 C-122.36600361 276.24814923 -129.39902724 273.0316768 -136.45703125 269.7109375 C-137.67886184 269.1409016 -138.90086669 268.57123908 -140.12304688 268.00195312 C-144.98094168 265.73104002 -149.82973505 263.45537386 -154.609375 261.0234375 C-157.83270791 259.42779867 -161.02460636 258.08453787 -164.39453125 256.8359375 C-172.56532768 253.74629694 -180.59928215 250.40128731 -188.58984375 246.875 C-217.69298934 234.04670232 -241.24145486 231.90960361 -272.64453125 235.0234375 C-273.97241165 235.15501251 -273.97241165 235.15501251 -275.32711792 235.28924561 C-284.70385632 236.22771261 -294.06524069 237.24469247 -303.4140625 238.4296875 C-322.088855 240.75015598 -340.50577255 241.65044006 -359.33203125 241.6484375 C-360.43100739 241.65025024 -361.52998352 241.65206299 -362.66226196 241.65393066 C-378.97795983 241.65087125 -395.29262394 241.46730309 -411.14453125 237.2734375 C-413.33043249 236.82801828 -415.51792516 236.39032895 -417.70703125 235.9609375 C-461.57956743 226.52296912 -492.3699255 196.93188629 -518.60498047 162.30224609 C-520.00974043 160.45106384 -521.42151889 158.60552395 -522.8359375 156.76171875 C-533.14453125 143.22638231 -533.14453125 143.22638231 -533.14453125 139.2734375 C-533.80453125 139.2734375 -534.46453125 139.2734375 -535.14453125 139.2734375 C-535.52586424 137.2820319 -535.85778707 135.28064673 -536.14453125 133.2734375 C-535.81453125 132.9434375 -535.48453125 132.6134375 -535.14453125 132.2734375 C-527.84844882 132.62647375 -521.88842463 134.57416632 -515.14453125 137.2734375 C-513.39076172 137.95986328 -513.39076172 137.95986328 -511.6015625 138.66015625 C-504.12253644 141.60264367 -496.72955236 144.72058088 -489.34765625 147.8984375 C-481.82681844 151.12689471 -474.35305261 153.92562127 -466.50390625 156.265625 C-464.27756346 156.93352784 -462.05844229 157.62603036 -459.84765625 158.34375 C-458.77 158.69179688 -457.69234375 159.03984375 -456.58203125 159.3984375 C-455.15697266 159.86636719 -455.15697266 159.86636719 -453.703125 160.34375 C-449.60633234 161.4140427 -445.51611736 162.09559872 -441.33666992 162.76025391 C-438.29423682 163.24937011 -435.2656061 163.78996498 -432.234375 164.34375 C-408.17951763 168.56284153 -379.58234173 170.93748821 -356.14453125 162.2734375 C-354.60432593 161.83082036 -353.06269445 161.39312925 -351.51953125 160.9609375 C-345.52810019 159.15907009 -339.85692381 156.81653844 -334.14453125 154.2734375 C-333.4784082 153.97727539 -332.81228516 153.68111328 -332.12597656 153.37597656 C-309.43940204 143.19623481 -288.60024612 130.34553433 -268.14453125 116.2734375 C-267.26667969 115.6738623 -266.38882812 115.07428711 -265.484375 114.45654297 C-254.1651395 106.71669167 -243.19300055 98.58865512 -232.32421875 90.23046875 C-227.33668809 86.40232842 -222.28215904 82.67177261 -217.20703125 78.9609375 C-211.14167913 74.52029981 -205.16715773 69.9934695 -199.28173828 65.31738281 C-194.26941325 61.34314782 -189.16076356 57.50568581 -184.03222656 53.68310547 C-179.8872699 50.59091571 -175.78598433 47.45217276 -171.70703125 44.2734375 C-164.6376885 38.81316157 -157.34075479 33.69162084 -150.015625 28.58203125 C-148.44924166 27.48654394 -146.88977934 26.38116947 -145.33203125 25.2734375 C-134.84689285 17.82347074 -123.94732214 11.08939675 -112.89453125 4.5234375 C-111.98413086 3.98058105 -111.07373047 3.43772461 -110.13574219 2.87841797 C-93.85301339 -6.7265625 -93.85301339 -6.7265625 -88.14453125 -6.7265625 C-88.14453125 -7.3865625 -88.14453125 -8.0465625 -88.14453125 -8.7265625 C-54.82877746 -20.10157695 -28.65366851 -22.18104326 0 0 Z " fill="#4D4D4D" transform="translate(932.14453125,523.7265625)"/>
<path d="M0 0 C1.22061127 0.00140488 1.22061127 0.00140488 2.46588135 0.00283813 C50.37281666 0.12157892 97.85718171 8.48618132 142.91796875 24.890625 C145.79054714 25.91280723 148.62660752 26.81577922 151.5625 27.625 C162.61669669 30.82638575 173.24869642 35.92527974 183.6328125 40.828125 C185.69301664 41.78405972 187.77204443 42.69994604 189.86328125 43.5859375 C224.79180405 58.46537376 257.62293128 80.56886064 285.5625 106.1875 C286.50222656 107.04915771 286.50222656 107.04915771 287.4609375 107.92822266 C304.01535302 123.31284912 324.09968422 146.42676841 325.765625 170.0703125 C325.95380495 183.08609228 323.0584142 191.23594317 314.5625 201.1875 C312.77097139 203.00013646 310.95769424 204.79149533 309.125 206.5625 C303.32978675 212.20583869 298.8635776 218.36411493 294.5625 225.1875 C294.18351562 225.7861084 293.80453125 226.3847168 293.4140625 227.00146484 C286.52730291 237.97001609 280.63970975 249.26476471 275.5625 261.1875 C271.35390357 270.49331146 266.90672239 279.69152805 262.4828186 288.89642334 C261.87927233 290.1529892 261.27667928 291.41001345 260.67514038 292.6675415 C250.47336345 313.98054919 239.33786183 335.47625888 218.5625 348.1875 C217.881875 348.64640625 217.20125 349.1053125 216.5 349.578125 C198.5510671 360.86419645 172.07502147 359.74132177 152.1875 355.25 C120.11249775 347.20815782 88.14945372 332.52485968 70.43017578 303.32128906 C58.3089761 282.22476879 57.48567115 256.52427853 63.5625 233.1875 C70.62254519 210.35280722 70.62254519 210.35280722 79.5625 205.1875 C83.74368718 204.16869221 87.06520106 204.40379671 90.8984375 206.41015625 C96.08997466 210.15763103 99.51754915 214.60167446 103.02734375 219.90234375 C109.65346109 229.76564819 123.66300242 238.59059743 134.9453125 241.8828125 C135.47898437 241.98335937 136.01265625 242.08390625 136.5625 242.1875 C134.10869197 214.74491219 118.67938158 184.63515709 98.9375 165.5 C98.15375 164.736875 97.37 163.97375 96.5625 163.1875 C96.5625 162.5275 96.5625 161.8675 96.5625 161.1875 C95.5725 160.8575 94.5825 160.5275 93.5625 160.1875 C91.27034617 158.02268805 89.10585818 155.75685618 86.9296875 153.4765625 C83.98598389 150.4536561 81.11301293 147.76376037 77.625 145.375 C76.614375 144.653125 75.60375 143.93125 74.5625 143.1875 C74.5625 142.5275 74.5625 141.8675 74.5625 141.1875 C88.63647784 140.06986058 101.12668533 143.24498941 114.5625 147.1875 C115.35333984 147.41711426 116.14417969 147.64672852 116.95898438 147.88330078 C137.81295722 154.11428864 157.70637532 165.38291588 173.5625 180.1875 C175.53832196 181.88725901 177.54281671 183.53986363 179.5625 185.1875 C159.58989834 152.05647843 116.2514699 137.68867302 80.7421875 128.88330078 C72.75931392 127.13643425 64.63148638 126.24219154 56.50415039 125.46533203 C54.5625 125.1875 54.5625 125.1875 52.5625 124.1875 C43.94186338 123.1553397 35.26184035 123.01746599 26.58984375 122.984375 C25.38727432 122.97867493 24.1847049 122.97297485 22.94569397 122.96710205 C20.41033793 122.95771674 17.87497005 122.95114407 15.33959961 122.94726562 C11.56145379 122.9376563 7.78387588 122.906609 4.00585938 122.875 C-12.99845395 122.80068203 -29.58034817 123.99579397 -46.4375 126.1875 C-47.32019562 126.29934631 -48.20289124 126.41119263 -49.11233521 126.52642822 C-53.48105059 127.08303363 -57.84133348 127.68130544 -62.19726562 128.33032227 C-64.23435267 128.63193709 -66.27322558 128.91866588 -68.3125 129.20507812 C-76.60546963 130.40387392 -84.64911468 132.11176394 -92.75439453 134.23071289 C-97.64488179 135.50115035 -102.56712562 136.59650899 -107.5 137.6875 C-116.21301954 139.64660062 -124.83404593 141.78694357 -133.4375 144.1875 C-134.9243849 144.58628912 -136.41136997 144.9847049 -137.8984375 145.3828125 C-152.56989013 149.37916847 -166.88270909 154.35437843 -181.22729492 159.37484741 C-184.51360095 160.52376743 -187.80518858 161.64985857 -191.11328125 162.734375 C-196.75146868 164.59860376 -202.30921052 166.68155317 -207.875 168.75 C-209.04426025 169.18401123 -210.21352051 169.61802246 -211.41821289 170.06518555 C-219.75326651 173.16814615 -228.07121157 176.31434607 -236.375 179.5 C-237.40874756 179.89582275 -238.44249512 180.29164551 -239.50756836 180.69946289 C-245.59508922 183.04558723 -251.62854571 185.49880872 -257.64379883 188.02416992 C-260.77428592 189.32774162 -263.92378091 190.57469762 -267.08105469 191.81152344 C-276.8698471 195.6542135 -286.53790154 199.76073365 -296.1875 203.9375 C-296.83652283 204.21762939 -297.48554565 204.49775879 -298.15423584 204.78637695 C-305.00831977 207.74793509 -311.792157 210.77862712 -318.4375 214.1875 C-321.58186606 215.5782773 -324.74259063 216.90383569 -327.92553711 218.203125 C-335.34515886 221.25202359 -342.64961306 224.51295195 -349.92114258 227.89916992 C-351.76394199 228.75648616 -353.60939427 229.60789874 -355.45507812 230.45898438 C-362.43531993 233.66072608 -362.43531993 233.66072608 -369.16796875 237.33984375 C-371.81381538 238.8350474 -374.21976056 239.93791905 -377.03515625 241.0234375 C-383.52125512 243.5385304 -389.67109601 246.67638601 -395.875 249.8125 C-397.12518156 250.44136792 -398.37542648 251.07010988 -399.62573242 251.69873047 C-408.81386653 256.32751902 -417.93383197 261.07812614 -427.01806641 265.90722656 C-431.64621103 268.35626697 -436.29333176 270.76902893 -440.9375 273.1875 C-444.77125689 275.18668867 -448.60451893 277.18682431 -452.4375 279.1875 C-453.25718262 279.61530762 -454.07686523 280.04311523 -454.92138672 280.48388672 C-470.28464083 288.51098799 -485.52989247 296.75520978 -500.73046875 305.0859375 C-520.44883623 315.88943069 -540.22807698 326.63843039 -560.3125 336.75 C-561.38999512 337.29563599 -561.38999512 337.29563599 -562.48925781 337.85229492 C-567.18923501 340.1875 -567.18923501 340.1875 -569.4375 340.1875 C-569.4375 340.8475 -569.4375 341.5075 -569.4375 342.1875 C-570.41847656 342.6 -571.39945313 343.0125 -572.41015625 343.4375 C-577.35310324 345.55537319 -582.18872146 347.89419667 -587.03320312 350.2265625 C-591.76150184 352.4769063 -596.52162715 354.38379692 -601.4375 356.1875 C-603.17 356.991875 -603.17 356.991875 -604.9375 357.8125 C-608.90947921 359.37292041 -612.2044134 359.81617661 -616.4375 360.1875 C-616.4375 360.8475 -616.4375 361.5075 -616.4375 362.1875 C-618.81174767 362.65001578 -621.18681143 363.10748782 -623.5625 363.5625 C-624.53123047 363.75199219 -624.53123047 363.75199219 -625.51953125 363.9453125 C-627.82179729 364.38383937 -630.12765144 364.79072956 -632.4375 365.1875 C-633.96588501 365.45216064 -633.96588501 365.45216064 -635.52514648 365.72216797 C-644.80797788 367.19887652 -653.87544551 367.58678441 -663.25 367.5625 C-664.00974121 367.56228851 -664.76948242 367.56207703 -665.55224609 367.56185913 C-690.4138544 367.493283 -715.55119325 363.18135229 -738.4375 353.1875 C-739.30004395 352.81351074 -740.16258789 352.43952148 -741.05126953 352.05419922 C-753.7103376 346.52127878 -766.08999748 340.73453562 -777.72949219 333.25732422 C-779.27535093 332.28906336 -780.87404576 331.40644749 -782.4765625 330.53515625 C-785.11364947 328.93086031 -786.72173936 327.75405104 -788.4375 325.1875 C-789.51078909 320.0844384 -789.0346577 315.3069531 -788.4375 310.1875 C-788.35918945 309.42663086 -788.28087891 308.66576172 -788.20019531 307.88183594 C-785.08420909 278.66797277 -777.40928979 251.04113555 -763.4375 225.1875 C-763.11281738 224.57825684 -762.78813477 223.96901367 -762.45361328 223.34130859 C-756.20916003 211.69473502 -748.49875545 201.51160964 -740 191.4375 C-739.47954102 190.81617188 -738.95908203 190.19484375 -738.42285156 189.5546875 C-737.1395263 188.05902562 -735.79353076 186.617573 -734.4375 185.1875 C-733.7775 185.1875 -733.1175 185.1875 -732.4375 185.1875 C-732.19 184.60871094 -731.9425 184.02992188 -731.6875 183.43359375 C-723.81244684 169.28310761 -702.20748897 158.45805963 -688.29296875 151.16210938 C-686.52933419 150.23573712 -684.77982338 149.28262148 -683.03125 148.328125 C-674.09894751 143.61153537 -664.83798569 140.2861736 -655.26220703 137.12915039 C-653.17919311 136.43475241 -651.10296322 135.71992437 -649.03076172 134.99389648 C-640.59549226 132.07757054 -632.18751858 129.78029391 -623.45800781 127.92944336 C-621.43563505 127.49960362 -619.41707034 127.05446067 -617.3984375 126.60742188 C-613.42221054 125.73811064 -609.43601107 124.94830756 -605.4375 124.1875 C-604.3345459 123.97706055 -603.2315918 123.76662109 -602.09521484 123.54980469 C-588.8708904 121.41666449 -575.41888445 121.79373239 -562.0625 121.8125 C-560.09511368 121.81231873 -560.09511368 121.81231873 -558.08798218 121.81213379 C-527.75774625 121.85198012 -500.07158195 124.95268564 -470.9375 133.4375 C-470.00808594 133.705625 -469.07867188 133.97375 -468.12109375 134.25 C-465.89248476 134.89330981 -463.66463511 135.53911002 -461.4375 136.1875 C-461.1199609 142.1016657 -462.2073054 146.98412895 -463.9375 152.625 C-464.20449707 153.49954834 -464.47149414 154.37409668 -464.74658203 155.27514648 C-468.87498975 168.24391099 -474.95635752 179.53376884 -483.4375 190.1875 C-484.50291016 191.59128906 -484.50291016 191.59128906 -485.58984375 193.0234375 C-494.4061727 204.3343692 -505.22073492 211.10875726 -517.4375 218.1875 C-518.22640625 218.70699219 -519.0153125 219.22648437 -519.828125 219.76171875 C-523.51840547 221.77811452 -527.36550819 222.9534724 -531.375 224.1875 C-532.21313232 224.44877686 -533.05126465 224.71005371 -533.91479492 224.97924805 C-541.01499244 227.14794461 -548.12994781 228.85624213 -555.4375 230.1875 C-556.34604736 230.36168457 -557.25459473 230.53586914 -558.19067383 230.71533203 C-561.63262792 231.21587637 -564.88993466 231.30054232 -568.3671875 231.28515625 C-569.65625 231.28193359 -570.9453125 231.27871094 -572.2734375 231.27539062 C-573.61979236 231.26703733 -574.96614652 231.25857241 -576.3125 231.25 C-577.68229004 231.2449783 -579.05208185 231.24041657 -580.421875 231.23632812 C-583.7604619 231.22457254 -587.09895815 231.20813964 -590.4375 231.1875 C-589.02281689 232.14875903 -587.6056636 233.10638325 -586.1875 234.0625 C-585.39859375 234.59617187 -584.6096875 235.12984375 -583.796875 235.6796875 C-571.43181865 243.58185927 -553.26770284 243.98594158 -539.125 241.4375 C-534.28559559 240.2693679 -529.53978922 238.73041215 -524.80859375 237.1875 C-522.24909171 236.42825027 -519.81404713 235.84710089 -517.20703125 235.328125 C-511.77002947 234.14762959 -506.79769448 232.1054874 -501.6875 229.9375 C-500.67196045 229.51146484 -499.6564209 229.08542969 -498.61010742 228.64648438 C-486.2914589 223.39478648 -474.28647261 217.47620564 -462.28637695 211.54101562 C-460.50099646 210.69277246 -458.69127571 209.89225321 -456.85327148 209.16503906 C-454.36642453 208.15873939 -452.12489561 206.97188647 -449.796875 205.640625 C-448.90419922 205.13281494 -448.01152344 204.62500488 -447.09179688 204.10180664 C-446.13337891 203.55258545 -445.17496094 203.00336426 -444.1875 202.4375 C-442.10974113 201.25326363 -440.031603 200.0696925 -437.953125 198.88671875 C-436.87869141 198.27489746 -435.80425781 197.66307617 -434.69726562 197.03271484 C-431.53123278 195.24055815 -428.35453432 193.46946626 -425.171875 191.70703125 C-411.95789117 184.38606379 -398.98710345 176.75537814 -386.125 168.83398438 C-381.97820472 166.29346953 -377.80147767 163.80379886 -373.625 161.3125 C-365.95966098 156.73131637 -358.34852673 152.0660591 -350.75 147.375 C-341.08922529 141.41176926 -331.38419601 135.52874828 -321.63989258 129.703125 C-314.55035229 125.46273609 -307.48744479 121.18085597 -300.4375 116.875 C-291.81803842 111.6148024 -283.15168056 106.44519433 -274.43066406 101.35546875 C-272.44642075 100.19272744 -270.46847799 99.01995057 -268.4921875 97.84375 C-249.04712093 86.28827043 -229.21449271 75.39382321 -209.27929688 64.71044922 C-207.43039624 63.71960367 -205.58267388 62.72655526 -203.73632812 61.73095703 C-190.98744858 54.86599346 -178.04185348 48.59379528 -164.81640625 42.70019531 C-161.85161602 41.37289472 -158.89554655 40.02787037 -155.94166565 38.67651367 C-130.29045409 26.97047599 -103.83003355 17.02157151 -76.4375 10.1875 C-75.00243699 9.81966201 -73.56754525 9.45115528 -72.1328125 9.08203125 C-68.2407905 8.08940561 -64.34436543 7.12042198 -60.4375 6.1875 C-59.75623047 6.0217749 -59.07496094 5.8560498 -58.37304688 5.68530273 C-52.31366108 4.26437406 -46.23450704 3.3985473 -40.0625 2.625 C-39.09828125 2.49931641 -38.1340625 2.37363281 -37.140625 2.24414062 C-34.24150676 1.87300686 -31.3407854 1.52439747 -28.4375 1.1875 C-27.16845825 1.03631714 -27.16845825 1.03631714 -25.8737793 0.88208008 C-17.26639235 -0.0301935 -8.64493334 -0.01287464 0 0 Z " fill="#4D4D4D" transform="translate(1198.4375,924.8125)"/>
<path d="M0 0 C0.33 0 0.66 0 1 0 C1.24628428 4.51521182 1.16306839 8.01732721 -0.3984375 12.27734375 C-1.86608248 16.50466304 -2.95297012 20.73482331 -3.8125 25.125 C-3.97210205 25.92542725 -4.1317041 26.72585449 -4.29614258 27.55053711 C-6.54152485 39.26480207 -8.22348202 51.08613142 -9.98168945 62.88134766 C-10.17089462 64.14302513 -10.17089462 64.14302513 -10.36392212 65.43019104 C-10.60310901 67.02807936 -10.83993369 68.62632358 -11.07406616 70.22496033 C-11.52887961 73.2632192 -12.02622672 76.07868017 -13 79 C-13.18827269 80.32030124 -13.33949693 81.64612316 -13.46484375 82.97387695 C-13.54162354 83.76933426 -13.61840332 84.56479156 -13.69750977 85.38435364 C-13.77670654 86.24364975 -13.85590332 87.10294586 -13.9375 87.98828125 C-14.02249756 88.88306686 -14.10749512 89.77785248 -14.19506836 90.69975281 C-14.37488044 92.60021497 -14.55297483 94.50084031 -14.72949219 96.40161133 C-14.99545254 99.26356556 -15.26676445 102.12497071 -15.5390625 104.98632812 C-15.71386394 106.84111549 -15.88835226 108.6959324 -16.0625 110.55078125 C-16.14169678 111.38781082 -16.22089355 112.22484039 -16.30249023 113.0872345 C-16.54636455 115.7239656 -16.77636999 118.36147414 -17 121 C-17.08988693 122.04558075 -17.17977386 123.0911615 -17.27238464 124.16842651 C-18.00946001 133.45994531 -18.19465232 142.71728839 -18.23828125 152.03125 C-18.24306299 152.82627489 -18.24784473 153.62129978 -18.25277138 154.44041634 C-18.28841743 160.46027113 -18.30388353 166.48005231 -18.3125 172.5 C-18.31423973 173.38153118 -18.31597946 174.26306236 -18.31777191 175.17130661 C-18.38302776 212.56860257 -16.28561462 249.14403545 -10 286.0625 C-8.9230914 292.4307149 -7.86286755 298.79546531 -6.9375 305.1875 C-6.15301018 310.4081756 -5.03099862 315.50867415 -3.78125 320.63671875 C-3.17431212 323.24958632 -2.62092173 325.85380159 -2.1015625 328.484375 C1.79845619 348.17430868 6.36367739 367.37134006 12.80322266 386.39453125 C14.18987663 390.57203142 15.50955047 394.76817153 16.82421875 398.96875 C22.04717305 415.58865355 27.50699202 431.80613036 34.89453125 447.61816406 C36.25160088 450.54209766 37.53943899 453.49325565 38.82592773 456.44873047 C64.53625903 515.25983968 96.68477386 569.35796767 137.046875 619.3203125 C139.0428584 621.79485731 141.00924881 624.28900709 142.953125 626.8046875 C147.19167601 632.28793219 151.36954671 637.66197482 156.40625 642.44921875 C158.12383979 644.12050097 159.68378781 645.87379673 161.25 647.6875 C170.01704368 657.8376721 179.28473526 667.44690163 188.78051758 676.91088867 C190.69925505 678.82422194 192.61252754 680.74290504 194.52539062 682.66210938 C200.51566124 688.65557888 206.52720252 694.52332837 213 700 C214.5448126 701.4132355 216.08695325 702.82940409 217.625 704.25 C222.74310089 708.8728008 228.12603829 713.09462027 233.5703125 717.3203125 C236.52905879 719.61974632 239.42861674 721.98199048 242.3125 724.375 C251.99502965 732.3387374 261.95842248 740.05606387 272.3046875 747.140625 C274.49376318 748.65076996 276.66005811 750.18369215 278.8203125 751.734375 C288.3275496 758.54471047 298.0003969 764.93778822 308 771 C308.61020996 771.37189453 309.22041992 771.74378906 309.84912109 772.12695312 C313.55587526 774.38384398 317.27799945 776.6132481 321.01318359 778.82275391 C322.35654148 779.61873225 323.69796791 780.41797791 325.03759766 781.22021484 C346.35535985 793.97134908 369.23061556 807.22363141 392.50390625 815.9375 C398.76385495 818.28804136 404.89539904 820.80976138 411.0090332 823.51660156 C426.9750103 830.58182928 443.06200442 836.86983081 459.953125 841.35107422 C463.82323587 842.37885411 467.56903702 843.49996328 471.3125 844.9375 C480.01709172 848.22473252 489.03089283 850.55716501 498 853 C499.00111816 853.2774707 500.00223633 853.55494141 501.03369141 853.84082031 C516.330096 858.04246967 531.6840782 861.16820141 547.3125 863.8125 C548.18136841 863.95952362 549.05023682 864.10654724 549.94543457 864.25802612 C559.64828481 865.8876062 569.35252264 867.37448599 579.11791992 868.5769043 C582 869 582 869 585 870 C586.39099261 870.18949707 587.78749371 870.34020741 589.18579102 870.46484375 C590.02839981 870.54162354 590.87100861 870.61840332 591.739151 870.69750977 C592.65152023 870.77670654 593.56388947 870.85590332 594.50390625 870.9375 C595.93173683 871.06499634 595.93173683 871.06499634 597.38841248 871.19506836 C599.41332656 871.37497537 601.43840278 871.5530653 603.46362305 871.72949219 C606.49899165 871.99445622 609.53368541 872.26627167 612.56835938 872.5390625 C632.63817982 874.32485599 652.45608469 875.16453418 672.61230469 875.13037109 C676.36136944 875.12501946 680.1103139 875.1303428 683.859375 875.13671875 C703.83232018 875.14389208 723.57138698 874.36519959 743.4375 872.3125 C744.25397003 872.22962738 745.07044006 872.14675476 745.91165161 872.06137085 C763.16540077 870.29059844 780.23471366 867.5921171 797.31420898 864.60083008 C799.96401007 864.16887933 802.58436087 863.79704346 805.24755859 863.48242188 C809.00522243 862.99932859 812.36987 862.06237703 816 861 C818.43305246 860.57768966 820.8711819 860.18405914 823.3125 859.8125 C848.5446401 855.6293439 873.47595684 847.13460702 897.796875 839.3359375 C901.49568677 838.151449 905.21353863 837.04056913 908.9375 835.9375 C912.83816111 834.73853302 916.5933465 833.39846778 920.34765625 831.80078125 C925.18866964 829.75858954 930.04102078 827.74912906 934.90625 825.765625 C955.01424417 817.55112143 975.03406114 809.2722928 994.37158203 799.34521484 C996.99394155 798.00310069 999.62192744 796.67235473 1002.25050354 795.34246826 C1017.00750282 787.86746169 1031.5742404 780.26183747 1045.61230469 771.48730469 C1048.17124997 769.89332773 1050.74438866 768.32418986 1053.3203125 766.7578125 C1065.52985456 759.30903771 1077.43979247 751.52829512 1088.9921875 743.09375 C1089.63486572 742.62670654 1090.27754395 742.15966309 1090.93969727 741.6784668 C1092.15628072 740.79112689 1093.36802848 739.89710483 1094.57397461 738.99536133 C1098.66879822 736 1098.66879822 736 1102 736 C1095.72379588 741.73395855 1089.43034688 747.43892011 1083 753 C1082.01902344 753.85980469 1081.03804687 754.71960937 1080.02734375 755.60546875 C1071.32543473 763.19161702 1062.32581747 770.3393908 1053.15380859 777.34765625 C1051.24425345 778.81261536 1049.34871151 780.29335102 1047.45703125 781.78125 C1017.35261776 805.20332216 984.01583119 824.88485412 950 842 C949.02321289 842.49258301 948.04642578 842.98516602 947.04003906 843.49267578 C941.53400231 846.26540337 936.020363 849.02233028 930.49560547 851.75756836 C928.77217855 852.61557262 927.05267119 853.48147922 925.33642578 854.35375977 C921.11794969 856.49354945 916.98732299 858.53595816 912.5 860.0625 C908.22943385 861.52881781 904.05231104 863.17066286 899.86474609 864.85571289 C875.84513753 874.45004605 851.51244334 883.45238819 826.4765625 890.02734375 C823.11262233 890.89562971 823.11262233 890.89562971 820.44140625 892.05078125 C817.42388955 893.22399174 814.50612078 893.71140017 811.3125 894.25 C804.03792068 895.5313717 796.87335153 897.17003732 789.6875 898.875 C764.58768382 904.77145893 739.01708209 909.85630294 713.19921875 910.7890625 C709.79749023 910.92169335 706.47955836 911.33110063 703.10473633 911.78613281 C699.07813332 912.19528537 695.04276283 912.10286553 691 912.0625 C690.12988281 912.05798828 689.25976562 912.05347656 688.36328125 912.04882812 C686.24215707 912.0371736 684.1210689 912.01924357 682 912 C682 912.66 682 913.32 682 914 C672.83688944 914.0233037 663.67378928 914.04100611 654.5106554 914.05181217 C650.25457007 914.05700191 645.9985052 914.06402741 641.74243164 914.07543945 C637.62512197 914.08640869 633.50783182 914.09230617 629.39050865 914.09487724 C627.82986837 914.09670646 626.26922901 914.10027761 624.70859718 914.10573006 C615.42888062 914.13682315 606.24693619 913.88670801 597 913 C597 912.34 597 911.68 597 911 C596.18660156 911.01160156 595.37320313 911.02320313 594.53515625 911.03515625 C555.53308432 911.34225918 516.55815553 903.24254846 478.87841797 893.71630859 C475.98877268 892.99720602 473.09232237 892.31659385 470.19140625 891.64453125 C449.55842592 886.79547169 429.42749235 880.04109983 409.6640625 872.40234375 C407.04135599 871.39855736 404.42184449 870.43376754 401.7734375 869.50390625 C368.94688791 857.91095298 336.69988953 842.1349344 306.671875 824.55566406 C303.89716874 822.94012785 301.10763653 821.35333878 298.3125 819.7734375 C289.39643846 814.73207319 280.53698709 809.66866818 272 804 C271.06671875 803.39027344 270.1334375 802.78054688 269.171875 802.15234375 C246.64862847 787.3235571 224.95472287 770.91260472 204.53125 753.30908203 C202.99084801 751.99217587 201.43591047 750.69485139 199.875 749.40234375 C192.92843193 743.63382989 186.27489062 737.61240066 179.73120117 731.38964844 C176.58295954 728.39900026 173.40978644 725.46826359 170.1171875 722.63671875 C165.34379127 718.49184387 160.89529549 714.04164167 156.4375 709.5625 C155.62603516 708.75490234 154.81457031 707.94730469 153.97851562 707.11523438 C149.63870402 702.76841743 145.47263935 698.33894818 141.46801758 693.68188477 C139.77843491 691.74615634 137.98838734 689.95564754 136.125 688.1875 C132.26346591 684.37774894 128.88245026 680.28518417 125.48828125 676.05859375 C122.69885127 672.62982817 119.82656371 669.28218504 116.9375 665.9375 C107.6200214 655.09995374 99.06178265 643.79841068 90.64404297 632.25244141 C89.25935365 630.35533068 87.86747345 628.46387892 86.47265625 626.57421875 C80.85446956 618.86241719 75.59962626 610.91928823 70.375 602.9375 C69.31768677 601.32282837 69.31768677 601.32282837 68.23901367 599.67553711 C54.85644024 579.12266742 42.25889863 558.00993651 31.10400391 536.16113281 C30.02989382 534.05851837 28.94332012 531.96271695 27.85546875 529.8671875 C24.05310572 522.47525012 20.66769276 515.00287338 17.57568359 507.28686523 C15.68521996 502.58655863 13.63004418 498.00384511 11.4375 493.4375 C5.76985719 481.51774362 1.59861197 469.07509067 -2.46484375 456.53271484 C-3.82098787 452.37831837 -5.25502351 448.30228258 -6.921875 444.26171875 C-9.52724491 437.85659024 -11.56852056 431.28537152 -13.625 424.6875 C-14.21667969 422.84381836 -14.21667969 422.84381836 -14.8203125 420.96289062 C-17.01628834 413.93354229 -18.63574659 407.13145463 -19.52099609 399.81567383 C-20.00610784 396.96409698 -20.82925538 394.63650447 -22 392 C-24.20919731 387.00672133 -24.92492048 382.08100407 -25.60546875 376.6875 C-25.85166843 374.03619681 -25.85166843 374.03619681 -27 372 C-27.32504884 370.31861101 -27.60970362 368.62934619 -27.875 366.9375 C-28.55378475 362.72005064 -29.25534517 358.50914531 -30.00805664 354.30419922 C-30.39467025 352.13988322 -30.77383864 349.97434175 -31.15234375 347.80859375 C-31.73026597 344.50549875 -32.33134756 341.20745209 -32.94140625 337.91015625 C-35.230746 325.22193533 -36.83027754 312.50305138 -38.1875 299.6875 C-38.27208466 298.90073883 -38.35666931 298.11397766 -38.44381714 297.30337524 C-40.87125976 274.52570855 -41.24182815 251.82450034 -41.25 228.9375 C-41.25058914 228.18079136 -41.25117828 227.42408272 -41.25178528 226.64444351 C-41.26406672 204.27147097 -40.86212652 182.22232483 -38 160 C-37.77117588 158.0333428 -37.54240663 156.06667708 -37.31713867 154.09960938 C-34.78525309 132.09065256 -31.6115839 110.02806972 -25.8828125 88.6015625 C-25.11842615 85.48313677 -24.54889565 82.39765959 -24.06323242 79.22583008 C-21.60524175 63.23069046 -16.49798402 47.5946085 -10.8815918 32.45166016 C-9.71529769 29.20825793 -8.78063252 25.95072616 -7.875 22.625 C-6.78316896 18.62763511 -5.57824281 14.82928235 -4 11 C-3.46694013 9.4416288 -2.94554824 7.87920374 -2.4375 6.3125 C-1.72179214 4.10604311 -1.03764763 2.07529526 0 0 Z " fill="#4F4F4F" transform="translate(300,755)"/>
<path d="M0 0 C2.99817949 0.00537439 5.99620967 0.00000389 8.99438477 -0.00634766 C25.81753977 -0.01288934 42.54699033 0.67479681 59.30883789 2.13037109 C60.31301758 2.21287109 61.31719727 2.29537109 62.35180664 2.38037109 C66.10031336 2.69812531 69.79821733 3.02214599 73.50805664 3.65380859 C76.0069861 4.06084383 78.37608291 4.27625629 80.89868164 4.41943359 C111.42246642 6.20638667 141.50681169 13.26293089 171.15869141 20.39355469 C174.24037597 21.08684757 177.31336208 21.64491764 180.43383789 22.13037109 C180.43383789 22.79037109 180.43383789 23.45037109 180.43383789 24.13037109 C181.60817383 24.26701172 182.78250977 24.40365234 183.99243164 24.54443359 C200.92836549 26.68784716 216.73401375 32.93531924 232.66674805 38.7590332 C237.56569235 40.54757081 242.48133428 42.28867416 247.39697266 44.03076172 C250.99653866 45.33411772 254.5502759 46.72989278 258.09399414 48.17724609 C259.63774272 48.80608525 261.18723708 49.42102256 262.74243164 50.02099609 C270.47959766 53.01930673 277.94940731 56.55977786 285.43383789 60.13037109 C286.44945801 60.61296387 287.46507812 61.09555664 288.51147461 61.59277344 C314.16279714 73.79906083 339.33889529 86.50453818 363.56469727 101.39208984 C366.58067418 103.2193325 369.62581009 104.98881131 372.67993164 106.75146484 C377.27216197 109.41889283 381.7119333 112.20698462 386.05883789 115.25537109 C387.05052979 115.94469727 387.05052979 115.94469727 388.06225586 116.64794922 C390.1917459 118.13426462 392.31403452 119.63027601 394.43383789 121.13037109 C395.5456543 121.91686035 395.5456543 121.91686035 396.67993164 122.71923828 C405.76540734 129.16837296 414.69544919 135.77306084 423.40649414 142.72021484 C425.89425698 144.70079507 428.4041825 146.64161974 430.93383789 148.56787109 C435.47195574 152.08533418 439.80132091 155.83695131 444.14306641 159.59155273 C447.66637285 162.63417174 451.23346008 165.59940611 454.87133789 168.50537109 C460.1272117 172.76604987 465.04890292 177.34352489 469.95703125 181.99511719 C472.9513737 184.83075177 475.96913886 187.60477347 479.10571289 190.28271484 C484.42356888 194.9039169 489.3646271 199.91169607 494.33398438 204.90014648 C495.99311109 206.56463387 497.65751841 208.22370556 499.32250977 209.88232422 C504.3703952 214.92705189 509.34070195 219.99799868 513.97753906 225.42895508 C516.18127898 228.00361786 518.4989584 230.46304551 520.80883789 232.94287109 C525.10134997 237.58941238 529.1672182 242.37136349 533.13305664 247.30224609 C535.17208702 249.80862639 537.25772736 252.26649684 539.3671875 254.71362305 C557.32764194 275.60548818 572.82406579 298.80986695 587.43383789 322.13037109 C587.94978516 322.94473633 588.46573242 323.75910156 588.99731445 324.59814453 C590.79554766 327.43793361 592.58405397 330.28368033 594.37133789 333.13037109 C594.96406494 334.06381348 595.55679199 334.99725586 596.16748047 335.95898438 C596.71815186 336.84054199 597.26882324 337.72209961 597.83618164 338.63037109 C598.33625732 339.42443359 598.83633301 340.21849609 599.3515625 341.03662109 C600.43383789 343.13037109 600.43383789 343.13037109 600.43383789 346.13037109 C601.09383789 346.13037109 601.75383789 346.13037109 602.43383789 346.13037109 C604.71110408 350.39326448 606.98551091 354.65766799 609.25756836 358.92333984 C610.02668982 360.36644031 610.79651744 361.8091647 611.56713867 363.25146484 C615.72132769 371.02767227 619.83293113 378.82373414 623.80883789 386.69287109 C624.13045898 387.32314209 624.45208008 387.95341309 624.78344727 388.6027832 C626.69648551 392.42127629 628.30251832 396.26763121 629.73298645 400.29241943 C630.93588203 403.44695947 632.5525741 406.39711629 634.12133789 409.38037109 C638.46972588 417.86099617 642.00156931 426.61528117 645.42163086 435.50390625 C646.13718765 437.36062597 646.86097944 439.21418193 647.59057617 441.06542969 C650.98909047 449.74873426 654.00561246 458.53071021 656.93383789 467.38037109 C657.17506378 468.1064859 657.41628967 468.83260071 657.66482544 469.58071899 C661.13751515 480.03996683 664.45318787 490.51925702 667.43383789 501.13037109 C667.77672852 502.25701172 668.11961914 503.38365234 668.47290039 504.54443359 C671.25299934 513.77605987 673.10794465 523.10438199 674.92944336 532.55908203 C675.74103193 536.69637672 676.61909856 540.81909289 677.49633789 544.94287109 C677.83114208 546.53528353 678.16578131 548.12773067 678.50024414 549.72021484 C679.05636441 552.36192729 679.6264576 554.9986117 680.21118164 557.63427734 C682.33755889 567.55353988 683.66328244 577.56055459 684.98852539 587.61425781 C685.69745524 592.96365223 686.42857811 598.28075403 687.45336914 603.57958984 C692.22731505 629.24391339 691.75706378 655.82960082 691.80309296 681.8372612 C691.80872738 684.20885473 691.8197553 686.58036764 691.83209229 688.95193481 C691.98577262 722.6897808 690.30804833 756.84427107 683.25415039 789.92333984 C681.85952181 796.75286714 680.90388371 803.67238169 679.87939453 810.56518555 C679.72075928 811.5998999 679.56212402 812.63461426 679.39868164 813.70068359 C679.19166626 815.08924561 679.19166626 815.08924561 678.98046875 816.50585938 C678.41391161 819.22604216 677.47831304 821.561293 676.43383789 824.13037109 C676.0556189 825.74420393 675.72282668 827.36929098 675.43383789 829.00146484 C675.26883789 829.90574219 675.10383789 830.81001953 674.93383789 831.74169922 C674.76883789 832.67433594 674.60383789 833.60697266 674.43383789 834.56787109 C673.42362141 840.25428493 672.37506471 845.67537325 670.43383789 851.13037109 C669.9130115 853.03199305 669.39309823 854.93390048 668.88647461 856.83935547 C666.38239887 866.22911033 663.41711689 875.43067846 660.28881836 884.62988281 C658.45266644 890.03305255 656.71973694 895.44743086 655.10375977 900.92041016 C654.24987687 903.73722793 653.27193929 906.49685698 652.24633789 909.25537109 C651.9021582 910.18607422 651.55797852 911.11677734 651.20336914 912.07568359 C650.94942383 912.75373047 650.69547852 913.43177734 650.43383789 914.13037109 C650.10383789 914.13037109 649.77383789 914.13037109 649.43383789 914.13037109 C649.83151077 908.56295082 650.81133343 903.46461338 652.24633789 898.06787109 C654.26871455 890.36866382 655.62081766 882.62104587 656.86499023 874.76220703 C657.69401018 869.53866188 658.56816673 864.34118548 659.62133789 859.15771484 C666.21614562 826.15512727 669.18435046 791.76497256 669.43383789 758.13037109 C669.45220218 756.72931815 669.47145617 755.32827666 669.49145508 753.92724609 C670.08200336 710.66376733 669.01745236 666.08766644 659.93823242 623.64697266 C658.93601889 618.64657718 658.17721923 613.60289761 657.37133789 608.56787109 C656.22787354 601.51244098 654.95485066 594.59671755 653.07836914 587.69287109 C652.38414585 584.9328076 651.92650401 582.19328346 651.49633789 579.38037109 C650.29443233 571.83938298 648.37592068 564.50609416 646.43383789 557.13037109 C646.16345703 556.09283691 645.89307617 555.05530273 645.61450195 553.98632812 C644.70718863 550.51160627 643.79059811 547.03945016 642.87133789 543.56787109 C642.43204956 541.89023682 642.43204956 541.89023682 641.98388672 540.17871094 C640.48818287 534.58615246 638.80249384 529.40510914 636.43383789 524.13037109 C635.81160981 522.10022017 635.22902887 520.05755222 634.68383789 518.00537109 C630.80227455 504.08528188 626.24779223 490.3653891 620.43383789 477.13037109 C619.73269213 475.47493594 619.03367744 473.81859742 618.33618164 472.16162109 C614.71244878 463.57998372 611.02135042 455.1208425 606.74243164 446.84130859 C605.38304786 444.02515235 604.30838576 441.19584528 603.24633789 438.25537109 C600.46086635 430.70139363 596.77083103 423.62112631 593.09130859 416.46875 C592.62039795 415.54884277 592.1494873 414.62893555 591.66430664 413.68115234 C591.23529053 412.85268799 590.80627441 412.02422363 590.36425781 411.1706543 C589.43383789 409.13037109 589.43383789 409.13037109 589.43383789 407.13037109 C588.77383789 407.13037109 588.11383789 407.13037109 587.43383789 407.13037109 C586.97235352 406.18419922 586.51086914 405.23802734 586.03540039 404.26318359 C578.21532001 388.35195931 569.6862818 373.0468877 559.86352539 358.28222656 C558.40901108 356.09300369 556.96749975 353.89562671 555.52758789 351.69677734 C548.4631983 340.9525562 541.05762318 330.48403737 533.43383789 320.13037109 C533.01505371 319.56092773 532.59626953 318.99148438 532.16479492 318.40478516 C523.14920415 306.17987088 513.73464646 294.30306792 503.84301758 282.77783203 C502.4098125 281.10228319 500.98734051 279.41810135 499.56665039 277.73193359 C487.93005613 263.96456149 475.48094736 250.99060938 462.73730469 238.24853516 C460.7315643 236.2405812 458.73402103 234.22469453 456.73657227 232.20849609 C450.29751315 225.74203884 443.83799051 219.57292849 436.67529297 213.90625 C434.02330168 211.80510801 431.5801585 209.57782014 429.12133789 207.25537109 C424.57323522 203.07446651 419.85891347 199.2258747 414.97753906 195.44946289 C411.08704785 192.43860674 407.25958758 189.36421946 403.4621582 186.23681641 C396.26813399 180.3174195 388.92736731 174.74099401 381.28051758 169.42236328 C379.3034363 168.03913825 377.34048601 166.6373876 375.37915039 165.23193359 C359.98707779 154.2246256 344.094292 144.19927827 327.8203125 134.55102539 C325.36415244 133.08888775 322.91876674 131.60965057 320.47290039 130.13037109 C305.07580925 120.89211641 289.09100887 112.90312482 272.84790039 105.27880859 C269.80215322 103.82986091 266.80634798 102.30145524 263.80883789 100.75537109 C260.11272502 98.88785384 256.40357351 97.2975859 252.52758789 95.84130859 C247.7064317 94.00879291 242.90992131 92.12838278 238.12915039 90.19287109 C237.19986221 89.81731583 237.19986221 89.81731583 236.25180054 89.43417358 C233.72298266 88.41213196 231.19444783 87.38947533 228.66870117 86.35986328 C219.36199225 82.56975724 209.99602428 79.22340895 200.43383789 76.13037109 C198.79514974 75.5841921 197.15701501 75.0363458 195.51977539 74.48583984 C187.85629135 71.93313152 180.15024319 69.51767438 172.43383789 67.13037109 C171.37648438 66.80311035 170.31913086 66.47584961 169.22973633 66.13867188 C155.70317833 61.97710682 142.2743065 58.21725342 128.37915039 55.52734375 C125.5586477 54.9517743 122.78075223 54.23376814 119.99633789 53.50537109 C115.21561525 52.272064 110.44213579 51.42540471 105.56665039 50.66162109 C101.09093359 49.90264667 96.67396995 48.91000872 92.24633789 47.91162109 C80.44002821 45.49229534 68.60736502 44.23898878 56.62133789 43.13037109 C55.68724091 43.04388306 54.75314392 42.95739502 53.79074097 42.86828613 C48.16260951 42.3501709 42.53331177 41.846412 36.90319824 41.3503418 C34.73668509 41.15734873 32.57100827 40.95749852 30.40551758 40.75341797 C11.55722439 39.01773285 -7.275765 38.92590655 -26.19116211 38.88037109 C-27.42736298 38.87501343 -28.66356384 38.86965576 -29.93722534 38.86413574 C-54.0669346 38.7848414 -78.04675045 40.10266392 -102.00366211 43.00537109 C-103.47588673 43.18022139 -104.94813683 43.35485719 -106.42041016 43.52929688 C-110.10228761 43.96836284 -113.78269819 44.41862553 -117.46276855 44.87255859 C-119.4938291 45.12150525 -121.52544597 45.36517242 -123.55737305 45.60693359 C-150.63248371 48.85292095 -177.06877702 54.08073921 -203.3737793 61.26123047 C-206.4262514 62.09227977 -209.4836773 62.90204755 -212.54272461 63.70849609 C-237.98025763 70.51525214 -263.35557088 78.74180511 -287.56616211 89.13037109 C-288.23744141 89.41638184 -288.9087207 89.70239258 -289.6003418 89.99707031 C-292.62690269 91.28748177 -295.64905056 92.58720035 -298.66772461 93.89599609 C-301.5562648 95.12615607 -304.46342886 96.24518743 -307.41186523 97.3203125 C-317.01228072 100.93026021 -326.17583351 105.30644522 -335.31616211 109.94287109 C-336.56346654 110.57260797 -337.81094565 111.20199896 -339.05859375 111.83105469 C-340.90295996 112.76107991 -342.74715649 113.69142373 -344.59046936 114.62353516 C-347.78420857 116.23763003 -350.98487378 117.83476396 -354.20288086 119.39990234 C-364.34690606 124.33927202 -374.11144345 129.87714007 -383.85717773 135.55810547 C-386.46514303 137.0717407 -389.08440805 138.5637605 -391.70678711 140.05224609 C-403.15049245 146.61039434 -414.15116594 153.73649035 -425.06616211 161.13037109 C-425.74491394 161.58934784 -426.42366577 162.04832458 -427.12298584 162.52120972 C-429.07596444 163.84468183 -431.02503497 165.17367366 -432.97241211 166.50537109 C-433.54968048 166.89765396 -434.12694885 167.28993683 -434.72171021 167.69410706 C-437.56601957 169.65184496 -440.21935928 171.68621348 -442.79077148 173.98193359 C-443.70665039 174.69091797 -444.6225293 175.39990234 -445.56616211 176.13037109 C-446.55616211 175.80037109 -447.54616211 175.47037109 -448.56616211 175.13037109 C-447.74374023 174.44072266 -446.92131836 173.75107422 -446.07397461 173.04052734 C-440.79489347 168.60075811 -435.54046481 164.1523163 -430.44116211 159.50537109 C-421.54272971 151.43669605 -412.06466381 144.03320823 -402.56958008 136.68310547 C-401.21167433 135.6306706 -399.8566115 134.57455925 -398.50415039 133.51513672 C-360.43804448 103.78057815 -318.08106992 79.91760318 -274.44116211 59.44287109 C-273.81936066 59.15014313 -273.1975592 58.85741516 -272.55691528 58.55581665 C-265.7608487 55.36690268 -258.96563741 52.43133691 -251.88061523 49.9465332 C-249.16419106 48.98862118 -246.52258795 47.89715836 -243.87866211 46.75537109 C-226.84767947 39.57865547 -209.28291335 33.37641731 -191.56616211 28.13037109 C-189.75360197 27.57718269 -187.94110803 27.02377737 -186.12866211 26.47021484 C-174.12754493 22.84407607 -162.21076533 19.86552952 -149.8894043 17.57763672 C-146.17994196 16.86349895 -142.49972452 16.0288452 -138.81616211 15.19287109 C-137.31887638 14.85904354 -135.82147794 14.52572115 -134.32397461 14.19287109 C-131.8897711 13.65125827 -129.45686055 13.10532545 -127.02612305 12.54833984 C-101.78648209 6.79307048 -75.63407331 2.44600291 -49.69555664 2.25634766 C-47.46492852 2.16581673 -47.46492852 2.16581673 -44.89550781 1.65625 C-40.65328736 0.98618013 -36.45098905 0.76872683 -32.16381836 0.57568359 C-30.79049095 0.5126152 -30.79049095 0.5126152 -29.38941956 0.44827271 C-19.5937208 0.03538925 -9.80313307 -0.02081175 0 0 Z " fill="#4F4F4F" transform="translate(969.566162109375,250.86962890625)"/>
<path d="M0 0 C0.66 0.33 1.32 0.66 2 1 C-1.96 4.465 -1.96 4.465 -6 8 C-5.67 9.32 -5.34 10.64 -5 12 C-5.63502441 12.42821045 -6.27004883 12.8564209 -6.92431641 13.29760742 C-9.82681092 15.25757203 -12.72592091 17.22248738 -15.625 19.1875 C-16.62402344 19.86103516 -17.62304688 20.53457031 -18.65234375 21.22851562 C-24.78924023 25.37724337 -24.78924023 25.37724337 -30.5234375 30.05078125 C-31.34070313 30.69402344 -32.15796875 31.33726562 -33 32 C-33.99 31.67 -34.98 31.34 -36 31 C-35.17757812 30.31035156 -34.35515625 29.62070312 -33.5078125 28.91015625 C-28.22873136 24.47038702 -22.9743027 20.0219452 -17.875 15.375 C-13.46543149 11.36301554 -8.89232624 7.58657525 -4.25 3.84765625 C-1.97880251 2.04394839 -1.97880251 2.04394839 0 0 Z " fill="#606060" transform="translate(557,395)"/>
<path d="M0 0 C0.33 0 0.66 0 1 0 C1.24321426 4.45892803 1.19204519 7.92783877 -0.375 12.125 C-2.1421253 17.19222266 -3.19459631 22.29663334 -4.1875 27.5625 C-4.36474609 28.47580078 -4.54199219 29.38910156 -4.72460938 30.33007812 C-5.15511359 32.55241071 -5.58014518 34.77563547 -6 37 C-6.66 35.68 -7.32 34.36 -8 33 C-9.485 35.475 -9.485 35.475 -11 38 C-12.32843209 35.34313582 -11.71549143 34.41112583 -10.85546875 31.60546875 C-10.59056641 30.73212891 -10.32566406 29.85878906 -10.05273438 28.95898438 C-9.76720703 28.04439453 -9.48167969 27.12980469 -9.1875 26.1875 C-8.91357422 25.28451172 -8.63964844 24.38152344 -8.35742188 23.45117188 C-7.06171042 19.22224313 -5.70232746 15.08558591 -4 11 C-3.46694013 9.4416288 -2.94554824 7.87920374 -2.4375 6.3125 C-1.72179214 4.10604311 -1.03764763 2.07529526 0 0 Z " fill="#5B5B5B" transform="translate(300,755)"/>
<path d="M0 0 C10.78796083 0.46478743 21.33426668 1.23380943 32 3 C32 3.33 32 3.66 32 4 C30.576875 4.2165625 30.576875 4.2165625 29.125 4.4375 C26.1065506 4.82935399 26.1065506 4.82935399 24 6 C21.63387011 5.60808232 19.28072579 5.13633456 16.9375 4.625 C11.29750366 3.42671198 5.74544316 2.50398624 0 2 C0 1.34 0 0.68 0 0 Z " fill="#C7C7C7" transform="translate(920,637)"/>
<path d="M0 0 C0.66 0.33 1.32 0.66 2 1 C-16.13333333 17.56666667 -16.13333333 17.56666667 -19 19 C-19 18.01 -19 17.02 -19 16 C-19.66 15.67 -20.32 15.34 -21 15 C-20.54149658 14.68772461 -20.08299316 14.37544922 -19.6105957 14.05371094 C-17.50981506 12.62120386 -15.41114835 11.1856289 -13.3125 9.75 C-12.2306543 9.01330078 -12.2306543 9.01330078 -11.12695312 8.26171875 C-7.29708212 5.63851943 -3.57858872 2.96451136 0 0 Z " fill="#646464" transform="translate(1400,1490)"/>
<path d="M0 0 C0.33 0 0.66 0 1 0 C1.40735632 7.46819926 0.19567905 13.70648143 -4 20 C-4.99 20.33 -5.98 20.66 -7 21 C-1.98984772 3.97969543 -1.98984772 3.97969543 0 0 Z " fill="#686868" transform="translate(300,755)"/>
<path d="M0 0 C-0.55550695 3.59905908 -1.74887248 4.99909799 -4.5625 7.25 C-5.20316406 7.77078125 -5.84382813 8.2915625 -6.50390625 8.828125 C-7.24447266 9.40820312 -7.24447266 9.40820312 -8 10 C-8 9.34 -8 8.68 -8 8 C-9.32 7.34 -10.64 6.68 -12 6 C-10.56839732 4.99157547 -9.12948547 3.99352109 -7.6875 3 C-6.88699219 2.443125 -6.08648438 1.88625 -5.26171875 1.3125 C-3 0 -3 0 0 0 Z " fill="#5C5C5C" transform="translate(1381,1506)"/>
<path d="M0 0 C0.66 0.33 1.32 0.66 2 1 C0.35 2.32 -1.3 3.64 -3 5 C-1.125 1.125 -1.125 1.125 0 0 Z M-5 5 C-4.34 5 -3.68 5 -3 5 C-4.33534276 7.94113469 -5.82464881 10.10845169 -8.0390625 12.453125 C-8.61914062 13.071875 -9.19921875 13.690625 -9.796875 14.328125 C-10.40015625 14.96234375 -11.0034375 15.5965625 -11.625 16.25 C-12.23601562 16.8996875 -12.84703125 17.549375 -13.4765625 18.21875 C-14.98028074 19.81645063 -16.48815737 21.40999149 -18 23 C-18 18.94414311 -16.49443033 18.03763735 -13.75 15.125 C-11.32424766 12.53277446 -8.99533856 9.99394684 -6.828125 7.1796875 C-6.22484375 6.46039062 -5.6215625 5.74109375 -5 5 Z " fill="#6E6E6E" transform="translate(469,1105)"/>
<path d="M0 0 C0.33 0 0.66 0 1 0 C2.19837637 5.54249071 1.78795422 9.13058749 0.125 14.5625 C-0.22304687 15.71878906 -0.57109375 16.87507813 -0.9296875 18.06640625 C-2 21 -2 21 -4 23 C-3.32545897 15.1753241 -1.73123042 7.65443386 0 0 Z " fill="#949494" transform="translate(1623,1142)"/>
<path d="M0 0 C0.33 0.99 0.66 1.98 1 3 C0.01257813 3.69867188 -0.97484375 4.39734375 -1.9921875 5.1171875 C-3.2865296 6.03635798 -4.58079653 6.95563433 -5.875 7.875 C-6.85146484 8.56529297 -6.85146484 8.56529297 -7.84765625 9.26953125 C-8.47285156 9.71425781 -9.09804688 10.15898437 -9.7421875 10.6171875 C-10.60626221 11.22989502 -10.60626221 11.22989502 -11.48779297 11.85498047 C-13.15228393 13.06102808 -13.15228393 13.06102808 -15 15 C-15.99 14.67 -16.98 14.34 -18 14 C-15.94127451 12.22461301 -13.87827001 10.45465816 -11.8125 8.6875 C-11.23435547 8.18798828 -10.65621094 7.68847656 -10.06054688 7.17382812 C-6.85335365 4.43774803 -3.70950011 2.04686164 0 0 Z " fill="#5F5F5F" transform="translate(539,412)"/>
<path d="M0 0 C2.60608273 2.5162178 4.89381685 5.05134359 7 8 C6.67 8.66 6.34 9.32 6 10 C3.36 8.68 0.72 7.36 -2 6 C-2 3 -2 3 0 0 Z " fill="#666666" transform="translate(1070,665)"/>
<path d="M0 0 C0.66 0.33 1.32 0.66 2 1 C1.55149342 2.81495662 1.09090429 4.62693134 0.625 6.4375 C0.24214844 7.95150391 0.24214844 7.95150391 -0.1484375 9.49609375 C-1 12 -1 12 -3 13 C-3 10.36 -3 7.72 -3 5 C-2.34 5 -1.68 5 -1 5 C-0.67 3.35 -0.34 1.7 0 0 Z " fill="#545454" transform="translate(1627,1135)"/>
<path d="M0 0 C2.93200474 2.85276137 5.64315404 5.65079784 8 9 C7.67 9.66 7.34 10.32 7 11 C4.03 8.36 1.06 5.72 -2 3 C-1.34 2.67 -0.68 2.34 0 2 C0 1.34 0 0.68 0 0 Z " fill="#D7D7D7" transform="translate(1371,1100)"/>
<path d="M0 0 C0.66 0.33 1.32 0.66 2 1 C-1.63 4.3 -5.26 7.6 -9 11 C-9.99 10.34 -10.98 9.68 -12 9 C-8.04 6.03 -4.08 3.06 0 0 Z " fill="#909090" transform="translate(1400,1490)"/>
<path d="M0 0 C0.66 0.33 1.32 0.66 2 1 C1.34 1.66 0.68 2.32 0 3 C-0.70710678 4.64991582 -1.37943989 6.31562256 -2 8 C-4.33333333 8 -6.66666667 8 -9 8 C-6.03 5.36 -3.06 2.72 0 0 Z " fill="#686868" transform="translate(544,406)"/>
<path d="M0 0 C2.00720923 0.28674418 4.0085944 0.61866701 6 1 C4.25 4.875 4.25 4.875 2 6 C1.01 4.35 0.02 2.7 -1 1 C-0.67 0.67 -0.34 0.34 0 0 Z " fill="#555555" transform="translate(1367,1513)"/>
<path d="M0 0 C0 0.66 0 1.32 0 2 C-2.90567134 4.01782732 -5.51669784 5.35494404 -9 6 C-9 6.66 -9 7.32 -9 8 C-9.99 7.67 -10.98 7.34 -12 7 C-3.55172414 0 -3.55172414 0 0 0 Z " fill="#686868" transform="translate(830,523)"/>
<path d="M0 0 C0.33 0 0.66 0 1 0 C1.1953125 6.0546875 1.1953125 6.0546875 1 8 C0.34 8.66 -0.32 9.32 -1 10 C-1.66 9.67 -2.32 9.34 -3 9 C-2.44271087 5.65626525 -1.64826111 2.96687001 0 0 Z " fill="#AAAAAA" transform="translate(300,755)"/>
<path d="M0 0 C0.66 0.66 1.32 1.32 2 2 C-0.31 4.31 -2.62 6.62 -5 9 C-5.66 8.67 -6.32 8.34 -7 8 C-4.69 5.36 -2.38 2.72 0 0 Z " fill="#E0E0E0" transform="translate(1505,1133)"/>
<path d="M0 0 C0.66 0.33 1.32 0.66 2 1 C-1.42388092 4.82669043 -4.00724943 6.72278474 -9 8 C-6.14723863 5.06799526 -3.34920216 2.35684596 0 0 Z " fill="#666666" transform="translate(742,582)"/>
<path d="M0 0 C0.66 0.33 1.32 0.66 2 1 C-0.77280706 4.08089673 -3.06326356 5.68775452 -7 7 C-7.33 6.34 -7.66 5.68 -8 5 C-6.71475739 4.13619741 -5.42157581 3.28419631 -4.125 2.4375 C-3.04605469 1.72400391 -3.04605469 1.72400391 -1.9453125 0.99609375 C-1.30335938 0.66738281 -0.66140625 0.33867187 0 0 Z " fill="#686868" transform="translate(646,335)"/>
<path d="M0 0 C0.66 0.33 1.32 0.66 2 1 C-0.83430453 4.2542015 -2.68607774 5.5206753 -7 6 C-2.25 1.125 -2.25 1.125 0 0 Z " fill="#6A6A6A" transform="translate(794,544)"/>
<path d="M0 0 C0.66 0.66 1.32 1.32 2 2 C-2.39453125 6.00390625 -2.39453125 6.00390625 -4 7 C-4.99 6.67 -5.98 6.34 -7 6 C-4.69 4.02 -2.38 2.04 0 0 Z " fill="#9C9C9C" transform="translate(528,420)"/>
</svg>
